<svg width="32" height="32" viewBox="0 0 32 32" fill="none" xmlns="http://www.w3.org/2000/svg">
<path fill-rule="evenodd" clip-rule="evenodd" d="M16 0C7.16267 0 0 7.164 0 16C0 24.836 7.16267 32 16 32C24.836 32 32 24.836 32 16C32 7.164 24.836 0 16 0ZM16.1867 25.3573C11.0293 25.3573 6.85333 21.1707 6.85333 16C6.85333 10.8293 11.0293 6.64267 16.1867 6.64267C18.7067 6.64267 20.8133 7.572 22.4293 9.08133L19.7973 11.7187V11.7133C18.8173 10.7773 17.5747 10.2973 16.1867 10.2973C13.1067 10.2973 10.604 12.9053 10.604 15.9947C10.604 19.0813 13.1067 21.6973 16.1867 21.6973C18.9813 21.6973 20.8827 20.0947 21.2747 17.8947H16.1867V14.2453H24.9667C25.084 14.872 25.1467 15.5253 25.1467 16.2107C25.1467 21.5573 21.5773 25.3573 16.1867 25.3573Z" fill="#F8F8F8"/>
</svg>
