<svg width="182" height="167" viewBox="0 0 182 167" fill="none" xmlns="http://www.w3.org/2000/svg">
<path d="M144.083 45.5455H137.865L124.973 10.02C123.906 7.0907 121.967 4.55948 119.418 2.76776C116.868 0.976059 113.832 0.010025 110.717 0H91V15.1818H110.717L121.788 45.5455H85.3125L82.5825 37.9545H91V22.7727H53.0833V37.9545H66.3542L80.1558 75.9091H75.075C71.7383 58.9814 57.5575 46.4564 39.8125 45.6214C18.5792 44.5586 0 62.2454 0 83.5C0 104.755 16.6833 121.455 37.9167 121.455C56.5717 121.455 71.6625 108.626 75.075 91.0909H106.925C110.262 108.019 124.443 120.544 142.188 121.379C163.421 122.365 182 104.755 182 83.4241C182 62.2455 165.317 45.5455 144.083 45.5455ZM59.3017 91.0909C56.2683 99.9723 48.0025 106.273 37.9167 106.273C25.1767 106.273 15.1667 96.2527 15.1667 83.5C15.1667 70.7473 25.1767 60.7273 37.9167 60.7273C48.0025 60.7273 56.2683 67.0277 59.3017 75.9091H37.9167V91.0909H59.3017ZM106.925 75.9091H96.3083L90.7725 60.7273H113.75C110.413 65.13 107.987 70.2159 106.925 75.9091ZM144.083 106.273C131.343 106.273 121.333 96.2527 121.333 83.5C121.333 76.4405 124.442 70.3677 129.296 66.1927L136.576 86.2327L150.832 81.0709L143.477 60.8032C143.628 60.8032 143.856 60.7273 144.083 60.7273C156.823 60.7273 166.833 70.7473 166.833 83.5C166.833 96.2527 156.823 106.273 144.083 106.273ZM83.4167 144.227H53.0833L98.5833 167V151.818H128.917L83.4167 129.045V144.227Z" fill="#000000"/>
</svg>
