<svg width="58" height="61" viewBox="0 0 58 61" fill="none" xmlns="http://www.w3.org/2000/svg">
<g clip-path="url(#clip0_222_2)">
<path fill-rule="evenodd" clip-rule="evenodd" d="M51.9 30.3362C52.0522 32.446 52.3616 34.5706 52.676 36.6804C53.1027 39.2156 53.3897 41.7728 53.5355 44.3402C53.6681 47.691 53.2752 50.4461 52.1799 52.3921C50.9619 54.5664 48.9825 55.728 46.0651 55.6238C42.5828 55.5592 40.4414 53.5835 39.4738 49.9348C38.8501 47.5868 38.7568 44.4742 39.13 40.7511C39.3953 38.0605 39.798 36.3379 39.6212 33.5679C39.4002 30.4255 38.8501 27.9484 37.9513 26.1216C37.3486 24.7607 36.2435 23.6918 34.8718 23.1431V52.8935C35.2922 53.0966 35.6744 53.3721 36.0014 53.7076C36.3887 54.0981 36.6954 54.5625 36.9036 55.0739C37.1119 55.5852 37.2176 56.1332 37.2146 56.6861V59.6646C37.2081 60.0237 37.0614 60.3655 36.8066 60.6157C36.5517 60.8658 36.2093 61.004 35.8541 61H1.34581C0.988889 61 0.646592 60.8567 0.394214 60.6016C0.141836 60.3465 5.19901e-05 60.0006 5.19901e-05 59.6398V56.6613C-0.00269087 56.1084 0.103121 55.5605 0.311361 55.0492C0.519601 54.5379 0.826129 54.0735 1.21319 53.6828C1.44206 53.4665 1.69411 53.2766 1.96466 53.1169V7.20801C1.96594 6.26014 2.15194 5.32181 2.51201 4.44658C2.87209 3.57136 3.3992 2.77639 4.06325 2.10707C4.72729 1.43774 5.51527 0.907169 6.38219 0.545638C7.24911 0.184108 8.178 -0.00129787 9.11581 6.83833e-06H27.6715C29.5704 0.00524724 31.3901 0.770004 32.7328 2.12715C34.0756 3.4843 34.8322 5.32348 34.8374 7.24276V20.3532C40.4169 21.5843 41.91 28.1222 42.2685 33.5133C42.5092 37.1421 42.1948 37.0875 41.8068 40.7759C41.4286 44.3154 41.4925 47.1698 42.0475 49.2597C42.6712 51.6276 44.0121 52.9084 46.0946 52.9382H46.1191C47.9167 52.9977 49.1102 52.3325 49.8126 51.0766C50.6426 49.5873 50.9324 47.3286 50.7949 44.4692C50.6501 41.9989 50.3747 39.5381 49.9697 37.0974C49.6456 34.8933 49.3165 32.6743 49.1642 30.361H48.7124L48.6682 27.4421C45.2301 27.1045 43.9335 24.7664 43.9335 21.4056V19.8568H43.4423C43.2274 19.8568 43.0213 19.7705 42.8693 19.6169C42.7173 19.4633 42.6319 19.2549 42.6319 19.0377V18.0995C42.6319 17.8822 42.7173 17.6739 42.8693 17.5203C43.0213 17.3667 43.2274 17.2804 43.4423 17.2804H45.8441V12.9863C45.8434 12.8167 45.876 12.6485 45.94 12.4916C46.0039 12.3347 46.0979 12.1922 46.2166 12.0722C46.3354 11.9522 46.4764 11.8572 46.6316 11.7926C46.7868 11.7279 46.9532 11.695 47.1211 11.6956C47.4597 11.6956 47.7845 11.8316 48.024 12.0737C48.2635 12.3157 48.3981 12.644 48.3981 12.9863V17.2804H52.1554V12.9863C52.1554 12.644 52.2899 12.3157 52.5294 12.0737C52.7689 11.8316 53.0937 11.6956 53.4324 11.6956C53.6005 11.695 53.767 11.7279 53.9225 11.7925C54.078 11.857 54.2194 11.952 54.3385 12.0719C54.4576 12.1918 54.5521 12.3343 54.6166 12.4913C54.6811 12.6482 54.7143 12.8164 54.7143 12.9863V17.2804H57.17C57.2764 17.2804 57.3818 17.3015 57.4801 17.3427C57.5785 17.3839 57.6678 17.4442 57.743 17.5203C57.8183 17.5963 57.878 17.6866 57.9187 17.786C57.9594 17.8854 57.9804 17.9919 57.9804 18.0995V19.0476C57.9779 19.2597 57.8941 19.4626 57.7466 19.6135C57.5991 19.7644 57.3995 19.8517 57.1897 19.8568H56.5561V21.5694C56.5561 24.8855 55.4461 26.8613 52.2585 27.3775V30.3263L51.9 30.3362ZM20.7315 35.3848H24.1156C24.2323 35.3848 24.3479 35.408 24.4558 35.4532C24.5636 35.4983 24.6616 35.5645 24.7442 35.6479C24.8267 35.7314 24.8922 35.8304 24.9369 35.9394C24.9815 36.0485 25.0045 36.1653 25.0045 36.2833C25.0021 36.4601 24.9493 36.6325 24.8523 36.7797L16.7925 50.6794C16.6859 50.8631 16.518 51.0022 16.3189 51.0718C16.1199 51.1414 15.9028 51.1369 15.7068 51.059C15.5107 50.9812 15.3486 50.8352 15.2496 50.6473C15.1506 50.4594 15.1212 50.242 15.1668 50.0341L16.3554 41.5106L12.3476 41.5801C12.1148 41.5828 11.8903 41.4925 11.723 41.3289C11.5556 41.1653 11.4588 40.9416 11.4537 40.7064C11.4481 40.5404 11.4908 40.3765 11.5765 40.2348L19.4987 26.335C19.6094 26.1703 19.7711 26.0474 19.9584 25.9856C20.1457 25.9239 20.348 25.9267 20.5335 25.9938C20.719 26.0608 20.8772 26.1883 20.9833 26.3561C21.0894 26.5238 21.1373 26.7225 21.1195 26.9208L20.7119 35.3848H20.7315ZM10.7366 6.2251H26.365C27.1463 6.2258 27.8954 6.54006 28.4475 7.0988C28.4819 7.13852 28.5212 7.17326 28.5556 7.21794C29.0445 7.76166 29.3174 8.46887 29.3218 9.20362V19.2809C29.3218 20.0709 29.0113 20.8285 28.4586 21.3871C27.906 21.9456 27.1564 22.2594 26.3749 22.2594H10.7366C9.95701 22.2574 9.20996 21.9433 8.65904 21.3857C8.10623 20.8277 7.7953 20.0706 7.79462 19.2809V9.19866C7.7953 8.40897 8.10623 7.65188 8.65904 7.09384C8.69601 7.0565 8.73539 7.02167 8.77692 6.98959C9.31632 6.49897 10.0159 6.22676 10.7415 6.2251H10.7366ZM33.6144 55.3458H3.56581C3.39931 55.4196 3.24778 55.524 3.11886 55.6536C2.98496 55.7883 2.87871 55.9484 2.80622 56.1248C2.73374 56.3011 2.69644 56.4902 2.69647 56.6812V58.2896H34.4985V56.6812C34.4943 56.2963 34.343 55.9281 34.0761 55.6536C33.9432 55.5207 33.7865 55.4145 33.6144 55.3408V55.3458Z" fill="black"/>
</g>
<defs>
<clipPath id="clip0_222_2">
<rect width="58" height="61" fill="white"/>
</clipPath>
</defs>
</svg>
